<svg xmlns="http://www.w3.org/2000/svg" viewBox="0 0 128 128">
  <path fill="#DBEAD4" d="M0 0h128v128H0z" />
  <path fill="#2A736A"
    d="M91.956 16.144c-3.663 2.59-5.628 14.292-6.521 20.545-.894 6.253-2.144 18.044.804 20.545.804.715.625 2.233-1.25 2.233h-18.58c-.894 0-1.073-1.16-.09-1.875 3.484-2.323 4.287-4.288 4.734-7.593l2.323-16.436c-3.484 1.072-12.863 4.645-15.99 13.22-3.037 14.292-9.022 19.92-19.473 23.136-12.684 3.93-26.173-5.628-20.635-15.633 3.841-6.788 16.883-5.002 14.56 2.859-1.34 4.287.626 11.523 5.36 9.915 3.841-1.34 6.164-8.933 7.593-18.044l4.556-32.604c-6.342 0-10.452 6.431-7.504 10.54 4.11 5.628-1.34 12.149-8.218 12.149C22.191 39.1 24.603 14 49.705 14H64.89c1.965 0 1.608 1.43.625 2.144-3.663 2.59-5.628 14.292-6.52 20.545l-.537 3.484c5.181-6.164 12.953-8.576 15.275-9.29l1.072-7.504c.446-3.216.178-5.27-2.59-7.593-.805-.714-.269-1.786.625-1.786h18.58c1.876 0 1.608 1.43.536 2.144Z" />
  <path fill="#2A736A"
    d="M101.587 64.4c5.067 0 11.011 1.461 10.232 6.333-.975 7.309-10.232 7.504-12.96 1.17-1.95-4.385-3.704-4.775-7.114-4.775-3.704 3.313-5.068 15.299-6.042 21.828h3.118c6.042 0 5.944-2.046 8.965-5.36.877-1.072 2.047-.682 1.852.585l-1.754 12.376c-.195 1.267-1.365 1.56-2.047.585-2.046-3.314-1.364-5.457-7.406-5.457h-3.118c-.975 7.113-2.339 17.443.585 19.879.78.779.682 2.436-1.462 2.436H64.849c-.975 0-1.17-1.267 0-2.046 3.703-2.534 4.677-4.678 5.165-8.283l5.164-36.64c-6.918 0-11.4 7.016-8.185 11.498 4.482 6.14-1.462 13.253-8.965 13.253-12.474 0-9.843-27.383 17.54-27.383h26.019Z" />
</svg>
