<svg id="BrandWordmark" xmlns="http://www.w3.org/2000/svg" viewBox="0 0 700 474">
  <path
    d="M331.587 3.221c-5.162 3.625-8.096 19.127-9.566 28.828-1.221 9.14-3.888 39.522-2.752 54.936 6.676-2.858 13.757-4.715 21.967-4.549 45.549 1.028 32.137 44.146-1.192 41.506-13.46-1.066-23.621-5.096-30.548-11.288-5.28 1.517-12.174 3.067-21.473 4.426-39.808 5.877-49.878-11.529-46.421-24.638 4.019-16.128 24.121-19.534 37.289-14.783 23.848 8.339.211 31.943-11.787 22.608-20.207-15.629-18.645 7.391-1.5 8.749 12.819 1.016 23.274-4.767 33.94-11.178-6.197-16.99.566-51.322 2.763-60.527h-21.002c-1.352 9.663-2.568 24.292 1.622 27.647 1.081 1.074.946 3.355-2.027 3.355h-28.115c-1.352 0-1.622-1.744 0-2.818 5.136-3.49 6.488-6.442 7.164-11.408l7.164-50.463c-9.597 0-15.815 9.663-11.354 15.837 6.217 8.455-2.028 18.252-12.436 18.252C226.022 37.713 229.672 0 267.653 0h22.979c2.973 0 2.432 2.147.946 3.221-5.542 3.758-8.516 20.803-9.867 30.332h21.085l2.839-19.46c.676-4.832.27-7.92-3.92-11.409-1.216-1.073-.541-2.684.946-2.684h28.115c2.838 0 2.433 2.147.811 3.221Zm9.893 112.773c12.498.99 20.159-12.27 1.003-12.659-8.531-.192-12.997 1.228-17.674 3.276 3.895 5.791 9.46 8.812 16.671 9.383Z"
  />
  <path
    d="M423.323 59.83c.868.869.759 2.713-1.628 2.713h-21.482c-1.085 0-1.302-1.41-.109-2.279 4.232-2.82 5.208-5.207 5.751-9.222l3.472-24.412c.542-4.014.217-6.401-3.147-9.222-.976-.868-.434-2.17.651-2.17 6.811 0 11.674-3.062 15.377-5.394 1.959-1.234 3.594-2.264 5.021-2.526 1.849-.44 1.411.691.949 1.888h-.001c-.107.278-.216.559-.297.824-6.727 20.723-8.138 46.763-4.557 49.8Z" />
  <path
    d="M471.724 42.47c1.519-11.066-6.835-20.071-18.77-20.071-12.043 0-23.001 9.005-24.52 20.072-1.519 11.067 6.835 20.072 18.878 20.072 11.935 0 22.893-9.005 24.412-20.072Zm-15.406 0c-1.302 9.332-5.208 17.035-8.572 17.035-3.472 0-5.208-7.703-3.906-17.034 1.302-9.44 5.208-17.034 8.68-17.034 3.364 0 5.1 7.595 3.798 17.034Z"
  />
  <path
    d="M664.202 130.768c3.182 0 2.387 3.448-1.327 5.569-10.078 5.305-14.056 12.731-18.299 22.544l-23.34 51.717-16.708 36.6c-18.035 38.722-38.457 48.535-53.839 48.535-28.644 0-36.07-28.909-21.483-45.087 17.239-19.096 46.678-12.731 38.987 8.487-8.487 22.808 13.526 18.83 33.683-21.748l3.713-8.487H588.88c-10.344 0-11.67-3.978-12.996-13.261l-5.834-32.622c-.796-5.304-1.592-9.813-2.387-13.791-13.792-62.591-24.838-89.86-34.386-89.86-4.441 0-6.489 4.038-9.017 9.025-3.36 6.627-7.569 14.929-19.373 17.653-33.683 7.957-33.417-24.93-9.283-34.213 49.596-19.095 96.443 15.572 106.006 79.626 0 0 11.405 55.96 12.466 57.552-.177.177-.118.353-.059.53.029.089.059.177.059.265l1.06-2.387s24.4-58.612 15.118-71.078c-1.592-2.387 0-5.569 3.448-5.569h30.5ZM452.988 299.301c29.439 0 47.739-39.517 10.608-39.517-35.008 0-66.569 42.435-79.034 62.326l1.591-6.631c.241-.781.604-1.604.954-2.397 1.193-2.702 2.231-5.053-2.28-4.233-3.573.733-7.462 3.27-12.073 6.277-8.736 5.698-20.061 13.084-36.727 13.084-2.652 0-4.243 3.182-1.856 5.304 8.221 7.161 9.017 12.996 7.691 22.809l-3.183 22.278c-1.326 9.813-3.713 15.648-14.056 22.544-2.918 2.121-2.387 5.569.265 5.569h51.717c5.57 0 6.1-4.509 3.713-6.63-7.161-6.1-7.956-26.522-.53-58.878 17.504-28.113 43.23-53.84 56.226-53.84 2.982 0 3.986 2.071 5.158 4.487 1.642 3.385 3.613 7.448 11.816 7.448Zm193.878-15.943c-3.863 14.331 8.271 22.011 21.912 30.646C683.51 323.329 700 333.766 700 354.894c0 20.735-26.956 45.099-52.356 46.136h-.519c-19.18.518-44.839-6.739-48.468-24.882-5.961-28.77 54.689-34.213 47.691-1.296-5.184 24.623 18.143 23.586 24.364 6.22 4.704-13.629-7.431-20.635-21.62-28.828-16.302-9.413-35.317-20.392-34.624-44.781.518-27.474 22.549-44.062 48.727-44.062 17.107 0 34.213 9.33 35.25 21.253 1.555 17.366-38.101 27.215-34.472 1.814 3.628-25.919-13.737-16.329-17.107-3.11Z" />
  <path
    d="M603.438 432.971c-.265-23.339 39.783-28.379 45.617-8.487 8.222 29.704-39.782 58.082-74.26 46.413-25.196-8.487-41.904-37.926-32.622-92.296 5.039-28.113 6.1-55.43-6.1-55.43-6.63 0-14.322 11.404-20.422 26.522 0 3.713 0 7.426-.53 11.404l-2.387 17.504c-1.326 9.813-.53 15.648 7.691 22.544 2.387 2.121.796 5.569-1.856 5.569h-52.778c-5.57 0-4.774-4.243-1.592-6.63 19.096-15.383 22.544-76.913 5.305-76.913-5.305 0-11.405 11.404-16.709 23.604-6.1 29.174-4.774 47.739 1.856 53.309 2.387 2.121 1.857 6.63-3.713 6.63h-51.717c-2.652 0-3.182-3.448-.265-5.569 10.343-6.896 12.73-12.731 14.056-22.544l3.183-22.278c1.326-9.813.53-15.648-7.691-22.809-2.387-2.121-.796-5.304 1.856-5.304 16.666 0 27.991-7.386 36.728-13.084 4.61-3.007 8.499-5.544 12.072-6.277 4.512-.82 3.474 1.531 2.28 4.233-.35.793-.713 1.616-.954 2.398l-2.121 8.221c6.365-8.487 13.526-15.117 22.278-15.117 16.708 0 28.643 11.139 33.152 27.582 6.365-12.995 17.504-27.582 32.356-27.582 24.4 0 38.722 23.339 34.479 52.513l-2.387 17.504c-.213 1.47-.463 3.141-.737 4.977l-.002.016c-3.487 23.344-10.964 73.408 2.065 78.816 12.465 5.039 24.134-16.444 23.869-29.439Z" />
  <path
    d="M315.682 401.145c2.387 2.121 1.061 5.569-1.856 5.569h-27.052c-14.322 0-18.035-12.73-18.035-12.73-6.896 7.691-17.239 12.73-27.848 12.73-17.769 0-30.235-14.056-27.848-31.295 2.387-17.24 18.831-31.296 36.6-31.296 10.609 0 19.626 5.039 24.4 12.73l1.061-7.956c2.122-15.383-1.326-32.887-10.874-32.887-3.978 0-4.774 6.365-2.652 13.261 3.713 12.995-36.865 18.3-34.478 2.917 1.591-11.404 16.443-23.604 40.843-23.604 28.379 0 47.209 19.626 43.231 48.269l-3.183 21.748c-1.326 9.813-.53 15.648 7.691 22.544Zm-61-8.753c7.427 0 14.322-7.691 15.648-16.973 1.326-9.283-3.448-16.974-10.874-16.974-7.161 0-14.056 7.691-15.382 16.974-1.326 9.282 3.448 16.973 10.608 16.973Z"
  />
  <path
    d="M244.822 288.958c2.121-13.261-14.057-17.239-27.848-17.239h-70.813c-74.526 0-81.687 74.526-47.74 74.526 20.423 0 36.601-19.361 24.401-36.07-8.752-12.2 3.448-31.295 22.278-31.295l-14.056 99.721c-1.327 9.813-3.979 15.648-14.057 22.544-3.183 2.121-2.652 5.569 0 5.569h53.309c5.834 0 6.1-4.509 3.978-6.63-7.957-6.631-4.244-34.744-1.591-54.105h8.487c12.836 0 14.52 3.556 17.291 9.406.779 1.644 1.643 3.469 2.865 5.447 1.857 2.652 5.039 1.856 5.57-1.592l4.773-33.682c.531-3.448-2.652-4.509-5.039-1.592-1.785 1.959-3.17 3.754-4.413 5.366-4.481 5.808-7.114 9.221-19.987 9.221h-8.487c.262-1.754.534-3.653.822-5.66 2.626-18.32 6.539-45.621 15.622-53.748 9.282 0 14.056 1.061 19.361 12.995 7.426 17.24 32.621 16.709 35.274-3.182Z" />
  <path
    d="M519.253 238.944c2.652 0 4.244-3.448 1.591-5.569-7.956-6.896-9.017-12.731-7.691-22.544l7.691-54.369c2.387-17.505 5.039-26.257 11.405-45.883.2-.649.465-1.337.728-2.015 1.131-2.924 2.201-5.691-2.32-4.615-3.618.649-7.724 3.214-12.622 6.274-9.105 5.687-20.95 13.087-37.504 13.087-2.652 0-3.978 3.182-1.326 5.304 3.183 2.917 5.039 7.956 5.835 14.587-4.774-1.591-10.078-2.387-15.648-2.387-29.439 0-56.226 22.013-59.939 49.065-3.713 27.052 16.709 49.065 46.148 49.065h63.652Zm-62.591-7.426c-8.487 0-12.731-18.83-9.548-41.639 3.183-23.074 12.73-41.639 21.217-41.639 8.222 0 12.466 18.565 9.283 41.639-3.183 22.809-12.73 41.639-20.952 41.639Z"
  />
  <path
    d="M391.617 232.314c2.122 2.122 1.857 6.63-3.978 6.63h-53.574c-3.448 0-2.917-4.243.265-6.63 9.361-7.843 11.964-26.303 13.566-37.657.077-.549.152-1.081.226-1.595.044-.302.091-.612.139-.931l.107-.708c1.098-7.244 2.743-18.095.284-26.209h-5.835c-3.447 0-3.978-2.917-3.447-6.365.265-3.448 1.856-6.366 5.304-6.366h1.591c15.957 0 25.664-11.042 33.886-20.395 4.897-5.571 9.267-10.543 14.118-12.226 5.57-2.122 7.427 2.122 6.366 5.569-2.387 7.692-4.509 15.118-6.366 22.544 14.853-5.039 27.053-18.3 34.479-51.187 6.63-27.848 58.347-15.383 37.926 10.343-18.565 23.34-49.065 44.557-75.322 53.839-7.426 36.07-6.63 65.774.265 71.344Z" />
  <path
    d="M386.655 256.714c-5.835-19.892-46.148-14.852-45.618 8.487.266 12.995-11.669 34.478-24.134 29.439-11.511-4.671-8.856-24.558-5.235-51.673 2.135-15.993 4.606-34.5 4.704-53.884 0-32.356-14.321-48.269-42.7-48.269-24.4 0-39.252 12.2-40.843 23.604-2.387 15.383 38.191 10.078 34.478-2.917-2.122-6.896-1.326-13.261 2.652-13.261 9.548 0 12.996 17.504 10.874 32.887l-1.061 7.956c-4.774-7.691-13.791-12.73-24.4-12.73-18.034 0-34.213 14.056-36.6 31.296-2.386 17.239 9.813 31.295 27.848 31.295 10.609 0 20.952-5.039 27.848-12.73 0 0 .796-.796 2.387-1.857-.53 39.783 10.343 70.283 35.539 78.77 34.213 11.669 82.482-16.709 74.261-46.413Zm-110.596-49.065c-1.326 9.282-8.221 16.973-15.647 16.973-7.161 0-11.935-7.691-10.609-16.973 1.326-9.283 8.222-16.974 15.382-16.974 7.426 0 12.2 7.691 10.874 16.974Z"
  />
  <path
    d="M225.517 110.314c-10.874 7.691-16.709 42.435-19.361 61-2.652 18.565-6.365 53.574 2.387 61 2.387 2.122 1.857 6.63-3.713 6.63h-55.165c-2.652 0-3.183-3.448-.265-5.569 10.343-6.896 12.73-12.731 14.056-22.544l6.896-48.8c-10.344 3.183-38.191 13.792-47.474 39.252-9.017 42.435-26.787 59.144-57.817 68.692-37.66 11.669-77.709-16.709-61.265-46.413 11.404-20.157 50.126-14.852 43.23 8.487-3.978 12.73 1.857 34.213 15.913 29.439 11.404-3.979 18.3-26.522 22.544-53.574l13.526-96.804c-18.83 0-31.03 19.095-22.279 31.295 12.2 16.709-3.978 36.07-24.4 36.07-33.947 0-26.786-74.526 47.739-74.526h45.087c5.835 0 4.774 4.243 1.857 6.365-10.874 7.691-16.709 42.435-19.361 61l-1.591 10.343c15.382-18.3 38.456-25.46 45.352-27.582l3.182-22.278c1.327-9.548.531-15.648-7.691-22.544-2.387-2.122-.796-5.304 1.857-5.304h55.165c5.569 0 4.774 4.243 1.591 6.365Zm193.147-31.91c-2.387-8.138-18.77-6.076-18.662 3.472.109 5.316-4.665 14.104-9.765 12.043-4.645-1.928-.794-23.482 1.43-35.928.529-2.96.966-5.406 1.174-6.949.148-1.093.301-2.252.461-3.467l.002-.011c1.366-10.363 3.272-24.817 7.349-37.534.082-.265.19-.546.298-.823v-.001c.463-1.197.9-2.329-.949-1.888-1.427.262-3.061 1.292-5.021 2.526-3.702 2.332-8.565 5.394-15.376 5.394-1.085 0-1.628 1.302-.651 2.17 3.363 2.82 3.689 5.208 3.146 9.222l-3.472 24.412c-4.079 28.824-.824 43.938 9.483 47.41 14.105 4.774 33.916-7.897 30.553-20.048Z" />
  <path
    d="M368.927 51.07c1.302-1.41 2.929.434 2.061 1.628-4.448 6.401-12.368 10.85-20.723 10.85-12.043 0-20.397-9.006-18.878-20.073 1.519-11.066 12.369-20.072 25.388-20.072 8.463 0 16.817 5.75 15.732 12.912-.976 7.052-8.679 12.802-17.142 12.802-2.821 0-5.208-.65-7.378-1.627.542 3.58 2.495 6.618 6.727 7.92 3.797 1.085 10.633-.325 14.213-4.34Zm-13.128-24.629c-1.736 0-5.751 3.364-6.727 10.308-.868 5.75 1.41 9.33 4.014 9.33 2.93 0 5.534-4.448 6.293-9.764.76-5.425-.651-9.874-3.58-9.874Z"
  />
</svg>
