<svg xmlns="http://www.w3.org/2000/svg" viewBox="0 0 388 10">
  <path
    fill="none" stroke="#2a736a" stroke-width="3" stroke-linecap="round" stroke-linejoin="round"
    d="
      M2,8
      C14,8 14,8
      26,8
      C38,8 38,2
      50,2
      C62,2 62,8
      74,8
      C86,8 86,2
      98,2
      C110,2 110,8
      122,8
      C134,8 134,2
      146,2
      C158,2 158,8
      170,8
      C182,8 182,2
      194,2
      C206,2 206,8
      218,8
      C230,8 230,2
      242,2
      C254,2 254,8
      266,8
      C278,8 278,2
      290,2
      C302,2 302,8
      314,8
      C326,8 326,2
      338,2
      C350,2 350,8
      362,8
      C374,8 374,8
      386,8
    " />
</svg>
