<svg xmlns="http://www.w3.org/2000/svg" viewBox="0 0 388 10">
  <path
    fill="none" stroke="#2a736a" stroke-width="3" stroke-linecap="round" stroke-linejoin="round"
    d="
      M2,8
      C14,8 14,2
      26,2
      C38,2 38,8
      50,8
      C62,8 62,2
      74,2
      C86,2 86,8
      98,8
      C110,8 110,2
      122,2
      C134,2 134,8
      146,8
      C158,8 158,2
      170,2
      C182,2 182,8
      194,8
      C206,8 206,2
      218,2
      C230,2 230,8
      242,8
      C254,8 254,2
      266,2
      C278,2 278,8
      290,8
      C302,8 302,2
      314,2
      C326,2 326,8
      338,8
      C350,8 350,2
      362,2
      C374,2 374,8
      386,8
    "
  />
</svg>
